<svg width="36" height="36" viewBox="0 0 36 36" fill="none" xmlns="http://www.w3.org/2000/svg">
<path d="M17.7183 13.5484L18.6104 12.6563L16.4769 10.5227C16.3714 10.4173 16.3121 10.2742 16.312 10.125V9.23291L14.062 6.98291L12.0449 9.00004L14.2949 11.25H15.187C15.3362 11.2501 15.4793 11.3094 15.5847 11.4148L17.7183 13.5484Z" fill="white"/>
<path d="M19.9447 11.8844L20.587 11.2387C20.6626 11.1632 20.7582 11.1107 20.8625 11.0875C20.9668 11.0643 21.0755 11.0713 21.176 11.1076C21.4193 11.1994 21.677 11.2475 21.937 11.2499C22.4909 11.2492 23.0251 11.0445 23.4377 10.6749C23.8502 10.3053 24.1122 9.79676 24.1735 9.2463L23.4597 9.96012C23.3543 10.0656 23.2112 10.1249 23.062 10.1249H21.3745C21.2254 10.1249 21.0823 10.0657 20.9768 9.96018C20.8713 9.85469 20.812 9.71161 20.812 9.56243V7.87493C20.8121 7.72576 20.8714 7.5827 20.9769 7.47724L21.6907 6.76343C21.1402 6.82482 20.6316 7.08678 20.2621 7.49932C19.8925 7.91186 19.6878 8.44606 19.687 8.99993C19.6898 9.25906 19.7379 9.5157 19.8294 9.75818C19.8663 9.85903 19.8736 9.96835 19.8503 10.0732C19.8271 10.1781 19.7744 10.2741 19.6983 10.3499L18.7949 11.2499L19.4294 11.8844C19.5088 11.8423 19.5972 11.8203 19.687 11.8203C19.7769 11.8203 19.8653 11.8423 19.9447 11.8844Z" fill="white"/>
<path d="M16.3761 22.3516C16.5223 22.3767 16.6527 22.4586 16.7389 22.5794L18 24.3445L19.2611 22.5794C19.3473 22.4586 19.4777 22.3767 19.624 22.3516C21.9842 21.9448 24.1059 20.6672 25.5695 18.7713C27.033 16.8755 27.7318 14.4994 27.5277 12.113C27.3236 9.7267 26.2314 7.50383 24.4672 5.88404C22.7029 4.26425 20.3951 3.36548 18 3.36548C15.605 3.36548 13.2971 4.26425 11.5328 5.88404C9.7686 7.50383 8.67642 9.7267 8.47231 12.113C8.2682 14.4994 8.96701 16.8755 10.4306 18.7713C11.8941 20.6672 14.0158 21.9448 16.3761 22.3516ZM10.8968 18.0153C10.708 17.5067 10.6456 16.9599 10.7149 16.4219C10.7841 15.8839 10.983 15.3708 11.2944 14.9267C11.6058 14.4825 12.0204 14.1206 12.5026 13.8721C12.9848 13.6236 13.5201 13.496 14.0625 13.5001C14.3292 13.5012 14.5946 13.5354 14.8528 13.6019L15.5171 12.9376L14.9546 12.3751H14.0625C13.9133 12.375 13.7703 12.3158 13.6648 12.2103L10.8523 9.39777C10.7469 9.29228 10.6876 9.14923 10.6876 9.00008C10.6876 8.85092 10.7469 8.70788 10.8523 8.60239L13.6648 5.78989C13.7703 5.68444 13.9134 5.6252 14.0625 5.6252C14.2117 5.6252 14.3547 5.68444 14.4602 5.78989L17.2727 8.60239C17.3782 8.70786 17.4375 8.85091 17.4375 9.00008V9.8922L18 10.4547L18.6643 9.79039C18.5978 9.53218 18.5636 9.26671 18.5625 9.00008C18.561 8.45856 18.6904 7.92471 18.9396 7.44396C19.1889 6.96321 19.5506 6.5498 19.994 6.23892C20.4374 5.92805 20.9493 5.72891 21.4862 5.65846C22.0231 5.58802 22.5691 5.64835 23.0777 5.83433C23.1671 5.86613 23.2469 5.92 23.3099 5.99095C23.3728 6.06189 23.4168 6.14759 23.4377 6.24009C23.4587 6.33259 23.4559 6.42888 23.4296 6.52001C23.4033 6.61114 23.3545 6.69415 23.2875 6.76133L21.9375 8.10795V9.00008H22.8296L24.1763 7.65289C24.2433 7.58589 24.3261 7.53689 24.417 7.51044C24.508 7.48399 24.6042 7.48095 24.6967 7.5016C24.7891 7.52225 24.8749 7.56591 24.946 7.62855C25.017 7.69118 25.0712 7.77076 25.1033 7.85989C25.292 8.36843 25.3545 8.91521 25.2852 9.45321C25.2159 9.99121 25.017 10.5043 24.7056 10.9485C24.3942 11.3926 23.9796 11.7545 23.4974 12.003C23.0153 12.2515 22.4799 12.3792 21.9375 12.3751C21.6709 12.374 21.4054 12.3398 21.1472 12.2733L20.7641 12.6563L25.1477 17.0399C25.2532 17.1454 25.3124 17.2884 25.3124 17.4376C25.3124 17.5867 25.2532 17.7298 25.1477 17.8353L22.8977 20.0853C22.7922 20.1907 22.6492 20.25 22.5 20.25C22.3509 20.25 22.2078 20.1907 22.1023 20.0853L17.7188 15.7017L17.3357 16.0848C17.4022 16.343 17.4364 16.6084 17.4375 16.8751C17.4366 17.7699 17.0808 18.6278 16.448 19.2606C15.8153 19.8933 14.9574 20.2492 14.0625 20.2501C13.6734 20.2478 13.2876 20.1771 12.9229 20.0414C12.8336 20.0094 12.7539 19.9553 12.6911 19.8842C12.6283 19.8131 12.5845 19.7273 12.5638 19.6347C12.5431 19.5422 12.5461 19.4459 12.5726 19.3548C12.5991 19.2637 12.6482 19.1808 12.7153 19.1138L14.0625 17.7672V16.8751H13.1704L11.8238 18.2251C11.7568 18.2921 11.674 18.3411 11.583 18.3675C11.492 18.394 11.3958 18.397 11.3034 18.3764C11.2109 18.3557 11.1252 18.3121 11.0541 18.2494C10.983 18.1868 10.9289 18.1072 10.8968 18.0181V18.0153Z" fill="white"/>
<path d="M19.687 13.1707L18.2324 14.6252L22.4995 18.8923L23.954 17.4377L19.687 13.1707Z" fill="white"/>
<path d="M12.9377 15.75H14.6252C14.7744 15.75 14.9174 15.8093 15.0229 15.9148C15.1284 16.0203 15.1877 16.1634 15.1877 16.3125V18C15.1876 18.1492 15.1284 18.2923 15.0229 18.3977L14.309 19.1121C14.8596 19.0506 15.3681 18.7885 15.7377 18.3759C16.1073 17.9632 16.312 17.429 16.3127 16.875C16.31 16.6159 16.2618 16.3593 16.1704 16.1168C16.134 16.0163 16.127 15.9076 16.1502 15.8033C16.1735 15.699 16.2259 15.6034 16.3014 15.5278L16.9472 14.8827C16.9051 14.8033 16.883 14.7149 16.883 14.625C16.883 14.5352 16.9051 14.4468 16.9472 14.3674L16.3127 13.7329L15.4127 14.6363C15.3371 14.7118 15.2416 14.7642 15.1373 14.7875C15.033 14.8107 14.9242 14.8037 14.8237 14.7673C14.5804 14.6756 14.3227 14.6274 14.0627 14.625C13.5088 14.6258 12.9746 14.8305 12.5621 15.2001C12.1495 15.5696 11.8876 16.0782 11.8262 16.6287L12.54 15.9148C12.6454 15.8094 12.7885 15.7501 12.9377 15.75Z" fill="white"/>
<path d="M29.25 28.125H6.75C6.60082 28.125 6.45774 28.1843 6.35225 28.2898C6.24676 28.3952 6.1875 28.5383 6.1875 28.6875V29.25H29.8125V28.6875C29.8125 28.5383 29.7532 28.3952 29.6477 28.2898C29.5423 28.1843 29.3992 28.125 29.25 28.125Z" fill="white"/>
<path d="M32.625 19.125H26.7148C25.1272 21.3619 22.7377 22.8999 20.0441 23.4186L18.4579 25.6393C18.4058 25.7122 18.3371 25.7717 18.2575 25.8127C18.1779 25.8537 18.0896 25.8751 18 25.8751C17.9104 25.8751 17.8221 25.8537 17.7425 25.8127C17.6629 25.7717 17.5942 25.7122 17.5421 25.6393L15.9559 23.4186C13.2623 22.8999 10.8728 21.3619 9.28519 19.125H3.375C2.92745 19.125 2.49822 19.3028 2.18176 19.6193C1.86529 19.9357 1.6875 20.3649 1.6875 20.8125V29.8125C1.6875 30.2601 1.86529 30.6893 2.18176 31.0057C2.49822 31.3222 2.92745 31.5 3.375 31.5H5.0625V28.6875C5.0625 28.2399 5.24029 27.8107 5.55676 27.4943C5.87322 27.1778 6.30245 27 6.75 27H29.25C29.6976 27 30.1268 27.1778 30.4432 27.4943C30.7597 27.8107 30.9375 28.2399 30.9375 28.6875V31.5H32.625C33.0726 31.5 33.5018 31.3222 33.8182 31.0057C34.1347 30.6893 34.3125 30.2601 34.3125 29.8125V20.8125C34.3125 20.3649 34.1347 19.9357 33.8182 19.6193C33.5018 19.3028 33.0726 19.125 32.625 19.125ZM31.5 23.0625C31.2775 23.0625 31.06 22.9965 30.875 22.8729C30.69 22.7493 30.5458 22.5736 30.4606 22.368C30.3755 22.1625 30.3532 21.9363 30.3966 21.718C30.44 21.4998 30.5472 21.2993 30.7045 21.142C30.8618 20.9847 31.0623 20.8775 31.2805 20.8341C31.4988 20.7907 31.725 20.813 31.9305 20.8981C32.1361 20.9833 32.3118 21.1275 32.4354 21.3125C32.559 21.4975 32.625 21.715 32.625 21.9375C32.625 22.2359 32.5065 22.522 32.2955 22.733C32.0845 22.944 31.7984 23.0625 31.5 23.0625Z" fill="white"/>
<path d="M29.8125 30.375H6.1875V31.5H29.8125V30.375Z" fill="white"/>
</svg>
