<svg width="36" height="36" viewBox="0 0 36 36" fill="none" xmlns="http://www.w3.org/2000/svg">
<g clip-path="url(#clip0_69_189)">
<path d="M15.8906 36C15.2598 36 14.7656 35.5058 14.7656 34.875V32.1328C14.7656 31.6957 14.4868 31.3245 14.0553 31.1873C13.2088 30.9454 12.3311 30.5816 11.4486 30.1063C11.308 30.0324 11.1487 29.9931 10.9884 29.9931C10.7239 29.9931 10.4749 30.0965 10.2872 30.2841L8.34666 32.2247C8.13952 32.4319 7.85967 32.5459 7.55859 32.5459C7.25759 32.5459 6.97767 32.4319 6.7706 32.2247L3.77529 29.2294C3.56815 29.0223 3.4541 28.7424 3.4541 28.4414C3.4541 28.1403 3.56815 27.8605 3.77529 27.6533L5.71591 25.7128C6.02508 25.4035 6.0963 24.9365 5.89317 24.5507C5.41842 23.6689 5.05455 22.7913 4.81212 21.9428C4.67128 21.5202 4.2911 21.2344 3.86719 21.2344H1.125C0.494156 21.2344 0 20.7402 0 20.1094V15.8906C0 15.2598 0.494156 14.7656 1.125 14.7656H3.86719C4.30432 14.7656 4.6755 14.4868 4.81275 14.0553C5.05448 13.209 5.41835 12.3313 5.89352 11.4486C6.09637 11.0634 6.02515 10.5964 5.71598 10.2872L3.77536 8.34652C3.56822 8.13937 3.45417 7.85953 3.45417 7.55852C3.45417 7.25752 3.56822 6.97767 3.77536 6.7706L6.77067 3.77515C6.97774 3.56801 7.25766 3.45396 7.55866 3.45396C7.85974 3.45396 8.13959 3.56801 8.34673 3.77515L10.2873 5.71591C10.4749 5.90351 10.7239 6.0068 10.9884 6.0068C11.1487 6.0068 11.3081 5.96749 11.4493 5.89317C12.3312 5.41828 13.2088 5.05434 14.0574 4.81198C14.4798 4.67107 14.7656 4.29096 14.7656 3.86719V1.125C14.7656 0.494156 15.2598 0 15.8906 0H20.1094C20.7402 0 21.2344 0.494156 21.2344 1.125V3.86719C21.2344 4.30418 21.5132 4.67536 21.9447 4.81261C22.7912 5.05441 23.6689 5.41828 24.5514 5.89352C24.692 5.96756 24.8514 6.00687 25.0117 6.00687C25.2762 6.00687 25.5252 5.90351 25.7128 5.71598L27.6533 3.77522C27.8605 3.56808 28.1403 3.45403 28.4414 3.45403C28.7424 3.45403 29.0223 3.56808 29.2294 3.77522L32.2247 6.77067C32.4319 6.97774 32.5459 7.25759 32.5459 7.55859C32.5459 7.8596 32.4319 8.13945 32.2247 8.34659L30.2841 10.2873C29.9749 10.5964 29.9037 11.0635 30.1068 11.4493C30.5817 12.3313 30.9455 13.209 31.1879 14.0573C31.3288 14.4798 31.709 14.7656 32.1328 14.7656H34.875C35.5058 14.7656 36 15.2598 36 15.8906V20.1094C36 20.7402 35.5058 21.2344 34.875 21.2344H32.1328C31.6957 21.2344 31.3245 21.5132 31.1873 21.9447C30.9454 22.7912 30.5816 23.6689 30.1065 24.5512C29.9036 24.9365 29.9749 25.4035 30.284 25.7128L32.2246 27.6533C32.4318 27.8605 32.5458 28.1403 32.5458 28.4414C32.5458 28.7424 32.4318 29.0223 32.2246 29.2294L29.2293 32.2247C29.0223 32.4319 28.7423 32.5459 28.4413 32.5459C28.1403 32.5459 27.8604 32.4319 27.6533 32.2247L25.7127 30.2841C25.5251 30.0965 25.2761 29.9931 25.0115 29.9931C24.8512 29.9931 24.6919 30.0324 24.5507 30.1067C23.6688 30.5816 22.7912 30.9454 21.9426 31.1879C21.5202 31.3288 21.2344 31.709 21.2344 32.1328V34.875C21.2344 35.5058 20.7402 36 20.1094 36H15.8906ZM18 8.57812C12.8048 8.57812 8.57812 12.8048 8.57812 18C8.57812 23.1952 12.8048 27.4219 18 27.4219C23.1952 27.4219 27.4219 23.1952 27.4219 18C27.4219 12.8048 23.1952 8.57812 18 8.57812Z" fill="white"/>
<path d="M20.4184 15.145L16.9453 18.618L15.5816 17.2543C15.1697 16.8423 14.5022 16.8423 14.0902 17.2543C13.6783 17.6662 13.6783 18.3337 14.0902 18.7457L16.1996 20.855C16.6116 21.267 17.279 21.2671 17.691 20.855L21.9097 16.6363C22.3217 16.2243 22.3217 15.5569 21.9097 15.1449C21.4978 14.7329 20.8304 14.7329 20.4184 15.145Z" fill="white"/>
</g>
<defs>
<clipPath id="clip0_69_189">
<rect width="36" height="36" fill="white"/>
</clipPath>
</defs>
</svg>
