<svg width="36" height="36" viewBox="0 0 36 36" fill="none" xmlns="http://www.w3.org/2000/svg">
<g clip-path="url(#clip0_69_194)">
<path fill-rule="evenodd" clip-rule="evenodd" d="M20.8042 3.60093L28.1828 16.381L35.5613 29.1609C36.1463 30.1741 36.1463 31.3856 35.5614 32.3989C34.9763 33.4122 33.9271 34.018 32.7572 34.018H3.24295C2.07299 34.018 1.02378 33.4122 0.438797 32.399C-0.146266 31.3857 -0.146266 30.1741 0.438797 29.1609L7.81731 16.381L15.1959 3.60093C15.7809 2.58767 16.8301 1.98193 18.0001 1.98193C19.1701 1.98193 20.2192 2.58767 20.8042 3.60093ZM18.0001 25.8321C18.817 25.8321 19.4793 26.4944 19.4793 27.3114C19.4793 28.1283 18.817 28.7905 18.0001 28.7905C17.1831 28.7905 16.5208 28.1283 16.5208 27.3114C16.5208 26.4944 17.1831 25.8321 18.0001 25.8321ZM18.0008 9.49499C18.9943 9.49499 19.8959 10.3132 19.8416 11.3358L19.1841 23.6954H17.0147L16.16 11.3358C16.0902 10.3258 16.9884 9.49499 18.0008 9.49499Z" fill="white"/>
</g>
<defs>
<clipPath id="clip0_69_194">
<rect width="36" height="36" fill="white"/>
</clipPath>
</defs>
</svg>
