<svg width="38" height="38" viewBox="0 0 38 38" fill="none" xmlns="http://www.w3.org/2000/svg">
<g clip-path="url(#clip0_1298_4333)">
<path d="M8.55227 4.0166C7.44088 4.14024 6.38835 4.58015 5.51953 5.28412H8.5522L8.55227 4.0166Z" fill="white"/>
<path d="M14.7409 11.8149H9.85938V13.1211H14.0898C14.3604 12.7144 14.5791 12.2756 14.7409 11.8149Z" fill="white"/>
<path d="M8.55152 6.59033H4.32103C4.04982 6.99682 3.83039 7.43553 3.66797 7.89645H8.55145V6.59033H8.55152Z" fill="white"/>
<path d="M9.85938 14.4268V15.6943C10.9708 15.5706 12.0233 15.1307 12.892 14.4268H9.85938Z" fill="white"/>
<path d="M9.85938 4.0166V5.28412H12.892C12.0232 4.58015 10.9707 4.14024 9.85938 4.0166Z" fill="white"/>
<path d="M8.55259 9.20264H3.3667C3.31527 9.63649 3.31527 10.0749 3.3667 10.5088H8.55252L8.55259 9.20264Z" fill="white"/>
<path d="M8.55227 15.6943V14.4268H5.51953C6.38835 15.1307 7.44088 15.5706 8.55227 15.6943Z" fill="white"/>
<path d="M3.32884 22.2634H5.941C6.30164 22.2634 6.59406 21.971 6.59406 21.6103V20.3042H2.67578V21.6103C2.67578 21.971 2.9682 22.2634 3.32884 22.2634Z" fill="white"/>
<path d="M8.54952 13.1206V11.8145H3.66797C3.83039 12.2753 4.04982 12.7141 4.32103 13.1206H8.54952Z" fill="white"/>
<path d="M22.1802 36.1571L28.5148 25.596C26.9835 25.2102 25.6006 24.3802 24.5397 23.2104L18.2051 33.7729C17.7791 34.4831 17.7645 35.3666 18.1666 36.0905C18.5686 36.8144 19.3265 37.2689 20.1545 37.2826C20.9824 37.2963 21.7549 36.8673 22.1808 36.1571H22.1802ZM19.969 35.2311C19.66 35.0453 19.56 34.6442 19.7457 34.3351L20.9212 32.3759C21.0413 32.1758 21.2591 32.0551 21.4924 32.0591C21.7258 32.0631 21.9392 32.1913 22.0524 32.3955C22.1656 32.5996 22.1613 32.8485 22.0411 33.0486L20.8657 35.0078C20.6799 35.3169 20.2788 35.4168 19.9697 35.2311H19.969V35.2311Z" fill="white"/>
<path d="M0.714844 17.6921C0.714844 18.4135 1.29955 18.9982 2.02089 18.9982H22.5266C22.2366 17.1409 22.6063 15.2407 23.5715 13.6276V2.01901C23.5715 1.29766 22.9868 0.712891 22.2654 0.712891H2.02089C1.29955 0.712891 0.714844 1.29766 0.714844 2.01901V17.6921ZM20.3062 15.08C20.6669 15.08 20.9593 15.3723 20.9593 15.733C20.9593 16.0937 20.667 16.3861 20.3062 16.3861C19.9455 16.3861 19.6532 16.0937 19.6532 15.733C19.6532 15.3723 19.9456 15.08 20.3062 15.08ZM17.6941 15.08C18.0547 15.08 18.3471 15.3723 18.3471 15.733C18.3471 16.0937 18.0548 16.3861 17.6941 16.3861C17.3334 16.3861 17.041 16.0937 17.041 15.733C17.041 15.3723 17.3334 15.08 17.6941 15.08ZM9.20446 2.67207C13.1718 2.67207 16.388 5.88822 16.388 9.85557C16.388 13.8229 13.1718 17.0391 9.20446 17.0391C5.23711 17.0391 2.02089 13.8229 2.02089 9.85557C2.0256 5.89015 5.23904 2.67671 9.20446 2.67207Z" fill="white"/>
<path d="M15.0837 9.8557C15.0831 9.63749 15.0702 9.41942 15.0452 9.20264H9.85938V10.5088H15.0452C15.0703 10.292 15.0831 10.0739 15.0837 9.8557Z" fill="white"/>
<path d="M27.0258 23.5777C29.3411 24.9679 32.2612 24.8494 34.4563 23.2763C36.6514 21.7031 37.7018 18.9759 37.1291 16.3367C37.1004 16.2045 36.9942 16.103 36.8608 16.0804C36.7274 16.0578 36.5936 16.1187 36.5231 16.2341L33.8736 20.6513C33.7556 20.8482 33.5429 20.9687 33.3133 20.9687H28.9823C28.7409 20.9687 28.5191 20.8357 28.4057 20.6225L26.3675 16.8015C26.2596 16.5991 26.2658 16.355 26.3838 16.1582L29.0352 11.7384C29.1077 11.6234 29.1014 11.4756 29.0193 11.3672C28.9372 11.2588 28.7966 11.2126 28.6663 11.2513C26.0655 11.9858 24.1503 14.1962 23.7937 16.8751C23.4373 19.5541 24.7077 22.1886 27.0258 23.5777Z" fill="white"/>
<path d="M18.3484 22.2634H20.9605C21.3212 22.2634 21.6136 21.971 21.6136 21.6103V20.3042H17.6953V21.6103C17.6953 21.971 17.9877 22.2634 18.3484 22.2634Z" fill="white"/>
<path d="M14.0898 6.59033H9.85938V7.89645H14.7409C14.5791 7.43567 14.3604 6.9969 14.0898 6.59033Z" fill="white"/>
</g>
<defs>
<clipPath id="clip0_1298_4333">
<rect width="36.57" height="36.57" fill="white" transform="translate(0.714844 0.712891)"/>
</clipPath>
</defs>
</svg>
