<svg width="36" height="36" viewBox="0 0 36 36" fill="none" xmlns="http://www.w3.org/2000/svg">
<path d="M32.918 12.9993L19.0524 2.59869C18.428 2.13182 17.573 2.13182 16.9486 2.59869L3.08298 12.9993C2.17173 13.6856 1.96923 14.9737 2.63298 15.8624C3.30236 16.7456 4.59611 16.9087 5.50736 16.2224L16.943 7.64994C17.5674 7.18307 18.4224 7.18307 19.0467 7.64994L30.4824 16.2224C31.3936 16.9087 32.6874 16.7512 33.3567 15.8624C34.0261 14.9793 33.8236 13.6912 32.9067 12.9993H32.918Z" fill="white"/>
<path d="M29.8123 17.1169L18.3767 8.55003C18.2361 8.44315 18.0954 8.42065 17.9998 8.42065C17.9042 8.42065 17.7636 8.44315 17.6229 8.55003L6.1873 17.1169C6.00168 17.2575 5.8048 17.3757 5.59668 17.4657L5.64168 31.5675C5.64168 32.76 6.60918 33.7275 7.80168 33.7332L28.3048 33.75C29.5029 33.75 30.4704 32.7825 30.4704 31.59L30.4311 17.4825C30.2117 17.3869 30.0092 17.2632 29.8123 17.1169ZM17.9998 29.6888C13.8711 29.6888 10.5186 26.3419 10.5186 22.2132C10.5186 18.0844 13.8654 14.7375 17.9998 14.7375C22.1342 14.7375 25.4754 18.0844 25.4754 22.2132C25.4754 26.3419 22.1286 29.6888 17.9998 29.6888Z" fill="white"/>
<path d="M21.9831 21.4707C21.9831 21.4707 22.0393 21.4763 22.0618 21.4763C22.3375 21.4763 22.5793 21.2738 22.6187 20.9926C22.6637 20.6832 22.45 20.402 22.1406 20.357L21.2743 20.2332L21.5668 19.412C21.6681 19.1195 21.5162 18.7988 21.2237 18.692C20.9312 18.5851 20.6106 18.7426 20.5037 19.0351L20.0481 20.3176L18.5575 21.2176V19.4738L19.4181 18.422C19.615 18.1801 19.5812 17.8257 19.3393 17.6288C19.0975 17.432 18.7431 17.4657 18.5462 17.7076L17.995 18.3826L17.4437 17.7076C17.2468 17.4657 16.8925 17.432 16.6506 17.6288C16.4087 17.8257 16.375 18.1801 16.5718 18.422L17.4325 19.4738V21.2176L15.9418 20.3176L15.4862 19.0351C15.3793 18.7426 15.0587 18.5907 14.7662 18.692C14.4737 18.7988 14.3218 19.1195 14.4231 19.412L14.7156 20.2332L13.8493 20.357C13.54 20.402 13.3262 20.6888 13.3712 20.9926C13.4106 21.2738 13.6525 21.4763 13.9281 21.4763C13.9562 21.4763 13.9843 21.4763 14.0068 21.4707L15.3512 21.2795L16.8981 22.2132L15.3512 23.147L14.0068 22.9557C13.7031 22.9107 13.4162 23.1245 13.3712 23.4338C13.3262 23.7432 13.54 24.0245 13.8493 24.0695L14.7156 24.1932L14.4231 25.0145C14.3162 25.307 14.4737 25.6276 14.7662 25.7345C14.8281 25.757 14.89 25.7682 14.9575 25.7682C15.1881 25.7682 15.4075 25.622 15.4862 25.397L15.9418 24.1145L17.4325 23.2145V24.9582L16.5718 26.0101C16.375 26.252 16.4087 26.6063 16.6506 26.8032C16.8925 27.0001 17.2468 26.9663 17.4437 26.7245L17.995 26.0495L18.5462 26.7245C18.6587 26.8595 18.8162 26.9326 18.9793 26.9326C19.1031 26.9326 19.2325 26.8932 19.3337 26.8032C19.5756 26.6063 19.6093 26.252 19.4125 26.0101L18.5518 24.9582V23.2145L20.0425 24.1145L20.4981 25.397C20.5825 25.6276 20.7962 25.7682 21.0268 25.7682C21.0887 25.7682 21.1506 25.757 21.2181 25.7345C21.5106 25.6276 21.6625 25.307 21.5612 25.0145L21.2687 24.1932L22.135 24.0695C22.4443 24.0245 22.6581 23.7376 22.6131 23.4338C22.5681 23.1245 22.2925 22.9107 21.9775 22.9557L20.6275 23.147L19.0806 22.2132L20.6275 21.2795L21.9775 21.4707H21.9831Z" fill="white"/>
<path d="M28.7207 4.30891C28.7207 3.74641 28.2651 3.28516 27.697 3.28516H25.1038C24.5413 3.28516 24.0801 3.74641 24.0801 4.30891V4.96703L28.7207 8.44328V4.30891Z" fill="white"/>
</svg>
