<svg width="36" height="36" viewBox="0 0 36 36" fill="none" xmlns="http://www.w3.org/2000/svg">
<path fill-rule="evenodd" clip-rule="evenodd" d="M27.4296 20.9247C27.2313 21.6127 26.9574 22.2687 26.6176 22.883L27.3048 24.2317C27.5244 24.6627 27.4449 25.1644 27.1029 25.5064L25.5075 27.1019C25.1654 27.4439 24.6638 27.5233 24.2328 27.3038L22.884 26.6165C22.2697 26.9564 21.6137 27.2302 20.9258 27.4286L20.4584 28.8672C20.3089 29.3272 19.898 29.6258 19.4143 29.6258H17.158C16.6743 29.6258 16.2634 29.3273 16.1139 28.8672L15.6465 27.4286C14.9585 27.2303 14.3025 26.9564 13.6882 26.6166L12.3395 27.3038C11.9085 27.5234 11.4068 27.4439 11.0648 27.1019L9.46934 25.5064C9.12729 25.1644 9.04786 24.6627 9.26742 24.2317L9.95468 22.883C9.61484 22.2686 9.34099 21.6126 9.14264 20.9247L7.70406 20.4573C7.244 20.3078 6.94544 19.8969 6.94544 19.4132V17.1569C6.94544 16.6732 7.244 16.2622 7.70399 16.1127L9.14264 15.6453C9.34092 14.9573 9.61484 14.3014 9.95461 13.687L9.26742 12.3384C9.04779 11.9073 9.12729 11.4057 9.46934 11.0636L11.0647 9.46819C11.4068 9.12614 11.9085 9.04671 12.3394 9.26627L13.6882 9.95353C14.3025 9.61369 14.9585 9.33984 15.6464 9.14149L16.1138 7.70291C16.2633 7.24285 16.6742 6.94429 17.1579 6.94429H19.4142C19.8979 6.94429 20.3089 7.24278 20.4583 7.70291L20.9258 9.14171C21.6137 9.33998 22.2696 9.61383 22.8838 9.95353L24.2326 9.26627C24.6637 9.04664 25.1653 9.12614 25.5074 9.46819L27.1028 11.0636C27.4449 11.4056 27.5243 11.9072 27.3047 12.3383L26.6175 13.687C26.9573 14.3014 27.2312 14.9573 27.4295 15.6452L28.8682 16.1126C29.3282 16.2621 29.6268 16.6731 29.6268 17.1568V19.413C29.6268 19.8968 29.3283 20.3076 28.8682 20.4572L27.4295 20.9246L27.4296 20.9247ZM5.88349 9.67262L7.32343 11.1126L8.77037 4.97944L2.63733 6.42638L4.11313 7.90218C-0.935534 14.7758 -0.352557 24.4911 5.8637 30.7074C11.4575 36.3011 19.8846 37.3333 26.5249 33.8055L24.6846 31.9652C19.0922 34.5804 12.2274 33.5795 7.60949 28.9616C2.35984 23.712 1.78557 15.5593 5.88349 9.67262ZM27.8016 31.5907L33.9347 30.1437L32.4594 28.6684C37.5081 21.7949 36.9246 12.0792 30.7083 5.86283C25.1145 0.268982 16.6873 -0.763191 10.047 2.76467L11.8873 4.60496C17.4797 1.9897 24.3446 2.99059 28.9625 7.60848C34.2122 12.8581 34.7869 21.0112 30.6888 26.8979L29.2484 25.4575L27.8015 31.5906L27.8016 31.5907ZM20.4911 16.0802C19.2733 14.8624 17.299 14.8624 16.0812 16.0802C14.8635 17.2979 14.8635 19.2722 16.0812 20.49C17.299 21.7077 19.2733 21.7077 20.4911 20.49C21.7088 19.2722 21.7088 17.2979 20.4911 16.0802ZM22.7702 13.801C20.2937 11.3245 16.2786 11.3245 13.8021 13.801C11.3256 16.2775 11.3256 20.2926 13.8021 22.7691C16.2786 25.2456 20.2937 25.2456 22.7702 22.7691C25.2467 20.2926 25.2467 16.2775 22.7702 13.801Z" fill="white"/>
</svg>
